# xmcd CD database file
#
# Track frame offsets:
#	150
#	19335
#	35627
#	59227
#	80492
#	101542
#	121287
#	145442
#	161327
#	174857
#	192515
#	209702
#	231305
#	247157
#
# Disc length: 3532 seconds
#
# Revision: 0
# Processed by: cddbd v1.5.2PL0 Copyright (c) Steve Scherf et al.
# Submitted via: CDex 1.70beta2
#
DISCID=d30dca0e
DTITLE=Emilie-Claire Barlow - The Beat Goes On - VICJ-61645
DYEAR=2010
DGENRE=Jazz
TTITLE0=Raindrops Keep Falling on My Head
TTITLE1=Sunshine Superman
TTITLE2=Breaking Up Is Hard to Do
TTITLE3=Don't Think Twice, It's Alright
TTITLE4=He Thinks I Still Care
TTITLE5=The Beat Goes On 〜Soul Bossa Nova
TTITLE6=These Boots Were Made for Walkin'
TTITLE7=Until It's Time for You to Go
TTITLE8=Little Boat (O Barquinho)
TTITLE9=Comme Je Crie, Comme Je Chante
TTITLE10=Will You (Still) Love Me Tomorrow?
TTITLE11=Yester-Me, Yester-You, Yesterday
TTITLE12=T'es Pas Un Autre
TTITLE13=Mas Que Nada
EXTD=YEAR: 2010
EXTT0=
EXTT1=
EXTT2=
EXTT3=
EXTT4=
EXTT5=
EXTT6=
EXTT7=
EXTT8=
EXTT9=
EXTT10=
EXTT11=
EXTT12=
EXTT13=
PLAYORDER=
